<svg id="Layer_1" data-name="Layer 1" xmlns="http://www.w3.org/2000/svg" viewBox="0 0 162.75 97.92"><defs><style>.cls-1{fill:#fff;}</style></defs><title>klar logga h&amp;amp;g</title><rect width="162.75" height="97.92"/><path class="cls-1" d="M459.85,262.21a11.18,11.18,0,0,1-3.76,5.62q-.58.42-1.35,1T453,270.25q-2.31,1.94-2.46,3.25l0,.16q0,1,1.35,1l.24-.1q1.35,0,1.35.89a1.45,1.45,0,0,1-.67,1.18,2.26,2.26,0,0,1-1.35.5,2.36,2.36,0,0,1-1.88-1.05,3,3,0,0,1-.58-1.68,7.67,7.67,0,0,1,1.45-3.57l2.17-3.44q.77-1.23,1-1.6a19.44,19.44,0,0,0,1.83-5.93,11.24,11.24,0,0,0-4.19-.89q-4.67,0-10.26,5.62l1.11.1,3.49.32q1.28.11,1.61.1a5.3,5.3,0,0,0,4.48-1.94l.53.63L447.76,271a17,17,0,0,0-9.49-2.52q-5.2,0-6.36,2.47a2.58,2.58,0,0,0-.29.95,2.41,2.41,0,0,0,.1.58q.1.37.19.79t.19.81a2.77,2.77,0,0,1,.1.6q0,1.21-1,1.21H431q-1.2,0-1.2-1.68a6.64,6.64,0,0,1,1.16-3.36,28.94,28.94,0,0,1,1.88-2.47,13.55,13.55,0,0,0,2.84-4.78l.1-.84q0-1.42-1.3-1.42a3.5,3.5,0,0,0-2.75,1.47l-.1-.94q0-3.2,4-4.25l0-.63a3.91,3.91,0,0,0-.65-2.49,2.73,2.73,0,0,0-2-1.29,2.31,2.31,0,0,0-.48-.05H432a6.52,6.52,0,0,0-3.08.79,5,5,0,0,1,2.12-3.36,5.93,5.93,0,0,1,3.66-1.15,11.33,11.33,0,0,1,1.2-5.57,27.14,27.14,0,0,1,3.47-4.31,7.52,7.52,0,0,1-2.65.63,5.64,5.64,0,0,1-1.93-.47l-1.4-.47a5,5,0,0,1-.58-.21l-1.11-.16a3.38,3.38,0,0,0-2.07,1.1l-.36.37-.75.73a8.77,8.77,0,0,1,2-4.28,5,5,0,0,1,3.88-1.76,18,18,0,0,1,4.62.94,8.69,8.69,0,0,0,2.6.53l.48-.05q.38-.05.94-.18t1.28-.34l2-.58a16.45,16.45,0,0,0-4.91,4.41,12.84,12.84,0,0,0-1.54,6.83v8.19a22.68,22.68,0,0,1-.72,6.41,18.86,18.86,0,0,1-2.94,5.62l.14.16a18.26,18.26,0,0,0,4.58-4.57,11.81,11.81,0,0,0,1.64-6.46v-9.24q0-5.14,2.79-8a13.79,13.79,0,0,1,7.27-3.47,16.84,16.84,0,0,0-3.85,3.2,7.43,7.43,0,0,0-1.73,4.78V249l8-7a24,24,0,0,1,2.6,2.65,14.42,14.42,0,0,1,1.69,2.49,15.48,15.48,0,0,1,1.3,6.77v1.47A22.87,22.87,0,0,1,459.85,262.21Zm-8-16.17-4.67,4.3v1.42q1.64.42,2.75.63a9.77,9.77,0,0,0,1.64.21,8.43,8.43,0,0,0,2.22-.31,3.07,3.07,0,0,1,.51-.16,10,10,0,0,0,1.08-.37Q454.56,247.56,451.86,246Zm3.47,6.77a12.35,12.35,0,0,1-4,.58,16.06,16.06,0,0,1-4.14-.52v5.72a13.58,13.58,0,0,1,3.95-.63,12.25,12.25,0,0,1,4.19.79Z" transform="translate(-399.32 -231.59)"/><path class="cls-1" d="M475.65,270.4a6.07,6.07,0,0,1-3.08-5.67L466,270.46h-.24q-3.42-3.47-3.42-6.72,0-4.83,4.77-9.5l-2.31-6.56.63.05a6,6,0,0,0,5-2l6.84,2.47,1.35-1.15.1.21a14,14,0,0,0-1.64,4V265a2.07,2.07,0,0,0,1.35,1.63l.87-.47.53.47ZM472.57,251l-7-2.84,2,6,5,2.62Zm0,6.72-5-2.73a11.34,11.34,0,0,0-1.4,5.15,9.61,9.61,0,0,0,2.79,6.62l3.61-3.36Z" transform="translate(-399.32 -231.59)"/><path class="cls-1" d="M496.7,270.56a6.45,6.45,0,0,1-2.34-2.57,9.41,9.41,0,0,1-.6-3.73V251.71l-2.17-2-3.42,2.73v13l1.3,1.79L486,270.56l-3.66-3.36,1.35-1.63V252.08a3.18,3.18,0,0,0-1.16-2.42l-.77.58-.48-.58,4-3.94a6.26,6.26,0,0,1,3,5.51q2-1.63,3.56-3t2.6-2.42l3.32,3.36,2.07-1.79.48.58q-.53.74-1.06,1.58t-1.06,1.73V265.1a3.6,3.6,0,0,0,1.35,1.68l1-.63.48.52Z" transform="translate(-399.32 -231.59)"/><path class="cls-1" d="M518.91,247.62l-4.38,6.46,4.53,3v9.66a14.05,14.05,0,0,0-3.13,1.58l-1.11.76-1.73,1.23a10.15,10.15,0,0,0-4.87-1.37,11.61,11.61,0,0,0-4.86,1.21l-.63-.47,5.73-8.93L503.83,258v-8.09a21.17,21.17,0,0,0,5.92-4.36q4,2.15,6.17,2.15l1.25-.16a1.79,1.79,0,0,0,1.25-.55,1.72,1.72,0,0,0,.58-1.29,4.82,4.82,0,0,0-1.06-2l-.24-.47q0-.84,1.16-.84,1.45,0,1.45,1.94A6.73,6.73,0,0,1,518.91,247.62ZM512,257.7l-5.35,7.56a13.47,13.47,0,0,1,3.13-.31,11.18,11.18,0,0,1,5.2,1.42l0-7Zm2.36-6.93q-.68.05-1.45.05a12,12,0,0,1-4.82-1.15l0,6,2.89,1.63,4.67-6.72A12.08,12.08,0,0,1,514.38,250.77Z" transform="translate(-399.32 -231.59)"/><path class="cls-1" d="M451.37,316.22a17,17,0,0,1-11,4q-6.45,0-9.62-4.91a12.38,12.38,0,0,1-2-6l-.09-1.58a16,16,0,0,1,2.45-8.75,22.51,22.51,0,0,1,5.72-6.75l7.49-5.88q4.67,3,8.35,2.66l2.68-.2,0,.15-6.67,5.88q8.12,2.87,8.12,10.08v.26A13.73,13.73,0,0,1,451.37,316.22Zm-15.43-21.12q-3,3.22-3,8.85a14.2,14.2,0,0,0,2.31,8.23,1.92,1.92,0,0,0,.73-1.69Zm6.63,6.19a8.25,8.25,0,0,0-2,1v3q0,3.38-1.23,4.6l-1.5,1.46-2,2a11.7,11.7,0,0,0,6.81,4.65Zm-2-10.64v10.18L448.2,294Zm10.35,11a5.85,5.85,0,0,0-4.08-1.48,8.76,8.76,0,0,0-3.27.61v5.17a10.15,10.15,0,0,0,4.67,1.54,9.33,9.33,0,0,0,4.67-1.69A6.58,6.58,0,0,0,450.92,301.64Zm-2.72,10a14.25,14.25,0,0,0-4.63,1.07v5.37q5.45,0,8.58-5.37A8.46,8.46,0,0,0,448.2,311.61Zm4.95-4.76a11.9,11.9,0,0,1-5,1.48,13.12,13.12,0,0,1-4.49-1.18v4.45a13.09,13.09,0,0,1,4.58-.92,8.38,8.38,0,0,1,4.27,1.07,11.39,11.39,0,0,0,.77-4Z" transform="translate(-399.32 -231.59)"/><path class="cls-1" d="M469.57,302.41l-2.72-3-1.77,1.54v13.25l2.45,2.15,1.32-1.07.54.61-4.13,4a19.65,19.65,0,0,0-5.81-3.89,4.8,4.8,0,0,0,1.23-3.68V302a3.15,3.15,0,0,0-1.09-2.35l-.77.56-.5-.56,3.86-3.84a6.75,6.75,0,0,1,2,1.54,4.58,4.58,0,0,1,.91,2.46l4.58-3.94,2.95,3.63Z" transform="translate(-399.32 -231.59)"/><path class="cls-1" d="M478.79,309.11v5.32l3.81,1.89,3-2.15.5.61q-.59.41-1.2.87t-1.29,1l-3.95,3.12a19.14,19.14,0,0,0-6.26-2.56,5.54,5.54,0,0,0,1.27-3.73V299.85a30.58,30.58,0,0,0,3.11-1.84q1.52-1,3-2.2l5.85,6.6Q481.65,306.35,478.79,309.11Zm0-10v8.8l4.31-3.84Z" transform="translate(-399.32 -231.59)"/><path class="cls-1" d="M493.76,299.13V314l2.41,2.25,1.27-1.12.5.72-4.08,4a19.83,19.83,0,0,0-5.72-3.89,5.47,5.47,0,0,0,1.22-3.68v-13.2h-1.59l0-.72,5.9-8.34,0,6.5h4.63v2.61Z" transform="translate(-399.32 -231.59)"/><path class="cls-1" d="M512.51,319.85a6,6,0,0,1-2.9-5.52l-6.17,5.57h-.23q-3.22-3.37-3.22-6.55,0-4.71,4.49-9.26l-2.18-6.39.59.05a5.53,5.53,0,0,0,4.67-2l6.45,2.4,1.27-1.12.09.2a13.9,13.9,0,0,0-1.54,3.94v13.4a2,2,0,0,0,1.27,1.58l.82-.46.5.46Zm-2.9-18.92L503,298.16l1.91,5.83,4.67,2.56Zm0,6.55-4.72-2.66a11.35,11.35,0,0,0-1.32,5,9.52,9.52,0,0,0,2.63,6.44l3.4-3.27Z" transform="translate(-399.32 -231.59)"/><rect class="cls-1" x="27" y="46.81" width="108.76" height="4.31"/><polygon class="cls-1" points="113.54 48.96 152.87 74.55 152.87 23.37 113.54 48.96"/></svg>